<?xml version="1.0" encoding="UTF-8" standalone="no"?>
<!-- Created with Inkscape (http://www.inkscape.org/) -->

<svg
   version="1.1"
   id="svg1"
   width="434.64001"
   height="151.18668"
   viewBox="0 0 434.64001 151.18668"
   sodipodi:docname="ica-maxi-stormarknad-logo.eps"
   xmlns:inkscape="http://www.inkscape.org/namespaces/inkscape"
   xmlns:sodipodi="http://sodipodi.sourceforge.net/DTD/sodipodi-0.dtd"
   xmlns="http://www.w3.org/2000/svg"
   xmlns:svg="http://www.w3.org/2000/svg">
  <defs
     id="defs1" />
  <sodipodi:namedview
     id="namedview1"
     pagecolor="#ffffff"
     bordercolor="#000000"
     borderopacity="0.25"
     inkscape:showpageshadow="2"
     inkscape:pageopacity="0.0"
     inkscape:pagecheckerboard="0"
     inkscape:deskcolor="#d1d1d1">
    <inkscape:page
       x="0"
       y="0"
       inkscape:label="1"
       id="page1"
       width="434.64001"
       height="151.18668"
       margin="0"
       bleed="0" />
  </sodipodi:namedview>
  <g
     id="g1"
     inkscape:groupmode="layer"
     inkscape:label="1">
    <g
       id="group-R5">
      <path
         id="path2"
         d="M 1216.97,1133.86 V 296.449 H 897.969 V 895.215 L 690.902,296.449 H 472.766 L 257.5,895.215 V 296.449 H 0 V 1133.86 H 448.984 L 611.355,689.082 766.348,1133.86 h 450.622"
         style="fill:#ed2423;fill-opacity:1;fill-rule:nonzero;stroke:none"
         transform="matrix(0.13333333,0,0,-0.13333333,0,151.18667)" />
      <path
         id="path3"
         d="m 1607.3,552.977 h 152.63 l -76.32,179.16 z m 256.83,-256.528 -53.34,121.703 h -252.74 l -56.62,-121.703 h -235.12 l 291.28,617.563 h 306.19 l 295.89,-617.563 h -295.54"
         style="fill:#ed2423;fill-opacity:1;fill-rule:nonzero;stroke:none"
         transform="matrix(0.13333333,0,0,-0.13333333,0,151.18667)" />
      <path
         id="path4"
         d="M 2901.71,914.012 2677.75,627.551 2937.28,296.449 H 2662.03 L 2519.78,490.918 2376.11,296.449 h -216.44 l 248.2,318.887 -238.04,298.676 h 275.91 l 119.53,-166.192 124.1,166.192 h 212.34"
         style="fill:#ed2423;fill-opacity:1;fill-rule:nonzero;stroke:none"
         transform="matrix(0.13333333,0,0,-0.13333333,0,151.18667)" />
      <path
         id="path5"
         d="M 3244.86,914.012 V 296.449 h -210.04 v 617.563 h 210.04"
         style="fill:#ed2423;fill-opacity:1;fill-rule:nonzero;stroke:none"
         transform="matrix(0.13333333,0,0,-0.13333333,0,151.18667)" />
      <path
         id="path6"
         d="m 609.754,53.6719 c 15.492,-8.4531 39.066,-15.8711 63.566,-15.8711 30.645,0 47.801,13.6484 47.801,34 0,18.8008 -13.312,29.8902 -46.594,41.3202 -43.453,14.59 -71.207,36.66 -71.207,72.359 0,40.793 36.016,71.497 93.082,71.497 28.516,0 49.36,-5.747 63.055,-12.305 l -11.504,-36.703 c -9.5,4.707 -27.832,11.824 -52.535,11.824 -30.504,0 -43.434,-15.359 -43.434,-30.012 0,-19.105 15.204,-28.086 50.313,-40.765 45.676,-16.516 67.644,-38.227 67.644,-74.0277 0,-40.0586 -31.867,-74.808612 -99.718,-74.808612 -27.852,0 -56.735,7.492192 -71.114,15.832012 l 10.645,37.6602"
         style="fill:#040606;fill-opacity:1;fill-rule:nonzero;stroke:none"
         transform="matrix(0.13333333,0,0,-0.13333333,0,151.18667)" />
      <path
         id="path7"
         d="m 863.816,214.875 h -75.093 v 38.223 H 987.688 V 214.875 H 911.875 V 4.05859 H 863.816 V 214.875"
         style="fill:#040606;fill-opacity:1;fill-rule:nonzero;stroke:none"
         transform="matrix(0.13333333,0,0,-0.13333333,0,151.18667)" />
      <path
         id="path8"
         d="m 1044.4,127.578 c 0,-50.7967 27.11,-91.1874 73.04,-91.1874 46.4,0 72.68,40.8985 72.68,92.9884 0,47.016 -24.63,91.391 -72.56,91.391 -47.56,0 -73.16,-42.032 -73.16,-93.192 z m 196.45,3.492 C 1240.85,47.6914 1187.47,0 1114.99,0 1040.72,0 993.66,53.7305 993.66,126.66 c 0,76.465 51.03,130.496 125.22,130.496 76.72,0 121.97,-54.89 121.97,-126.086"
         style="fill:#040606;fill-opacity:1;fill-rule:nonzero;stroke:none"
         transform="matrix(0.13333333,0,0,-0.13333333,0,151.18667)" />
      <path
         id="path9"
         d="m 1329.88,139.766 h 28.43 c 32.59,0 52.65,16.273 52.65,41.019 0,27.094 -20.16,39.832 -51.23,39.938 -15.24,0 -24.95,-1.125 -29.85,-2.317 z m -47.68,109.918 c 18.25,3.156 44.96,5.351 72.86,5.351 37.68,0 63.4,-6.015 81.11,-20.066 14.48,-11.403 22.67,-28.656 22.67,-50.016 0,-32.07 -23.03,-53.965 -47.85,-62.215 v -1.058 c 19.07,-6.84 30.17,-24.0081 36.69,-48.1917 8.37,-31.168 15.53,-59.7383 20.78,-69.42971 h -49.35 c -4.08,7.21091 -10.36,27.76951 -17.71,58.76171 -7.55,32.461 -20.02,42.9887 -47.33,43.5897 h -24.19 V 4.05859 H 1282.2 V 249.684"
         style="fill:#040606;fill-opacity:1;fill-rule:nonzero;stroke:none"
         transform="matrix(0.13333333,0,0,-0.13333333,0,151.18667)" />
      <path
         id="path10"
         d="m 1726.47,105.66 c -1.58,32.164 -3.33,70.84 -3.14,104.762 h -1.08 c -8.68,-30.539 -19.67,-64.129 -31.03,-95.641 L 1652.62,7.01172 h -36.97 L 1580.79,113.301 c -10.31,31.969 -19.71,65.801 -26.61,97.121 h -0.87 c -1.13,-32.602 -2.7,-72.402 -4.7,-106.281 L 1542.74,4.05859 h -44.77 l 17.5,249.03941 h 63.13 l 34.25,-100.02 c 9.45,-29.43 17.89,-58.9882 24.2,-86.7186 h 1.14 c 7.07,27.1914 16.11,57.6096 26.29,86.9136 l 36.48,99.825 h 62.32 L 1778.39,4.05859 h -46.82 l -5.1,101.60141"
         style="fill:#040606;fill-opacity:1;fill-rule:nonzero;stroke:none"
         transform="matrix(0.13333333,0,0,-0.13333333,0,151.18667)" />
      <path
         id="path11"
         d="m 1953.24,108.84 -20.73,61.355 c -5.05,15.434 -9.4,32.371 -13.36,46.828 h -0.87 c -3.82,-14.605 -7.85,-31.859 -12.49,-46.664 L 1885.47,108.84 Z M 1877.62,74.4492 1855.19,4.05859 h -49.68 l 84.41,249.03941 h 61.18 L 2036.55,4.05859 h -51.58 l -23.8,70.39061 h -83.55"
         style="fill:#040606;fill-opacity:1;fill-rule:nonzero;stroke:none"
         transform="matrix(0.13333333,0,0,-0.13333333,0,151.18667)" />
      <path
         id="path12"
         d="m 2120.88,139.766 h 28.44 c 32.58,0 52.65,16.273 52.65,41.019 0,27.094 -20.16,39.832 -51.24,39.938 -15.23,0 -24.94,-1.125 -29.85,-2.317 z m -47.67,109.918 c 18.25,3.156 44.96,5.351 72.85,5.351 37.69,0 63.41,-6.015 81.12,-20.066 14.47,-11.403 22.67,-28.656 22.67,-50.016 0,-32.07 -23.03,-53.965 -47.85,-62.215 v -1.058 c 19.06,-6.84 30.17,-24.0081 36.68,-48.1917 8.38,-31.168 15.54,-59.7383 20.78,-69.42971 h -49.34 c -4.08,7.21091 -10.36,27.76951 -17.72,58.76171 -7.54,32.461 -20.01,42.9887 -47.32,43.5897 h -24.2 V 4.05859 h -47.67 V 249.684"
         style="fill:#040606;fill-opacity:1;fill-rule:nonzero;stroke:none"
         transform="matrix(0.13333333,0,0,-0.13333333,0,151.18667)" />
      <path
         id="path13"
         d="m 2295.34,253.098 h 47.67 V 138.531 h 1.1 c 6.27,9.535 13.01,18.399 19.27,26.836 l 68.9,87.731 h 59.12 L 2400.74,147.18 2497.32,4.05859 h -56.19 L 2366.65,118.09 2343.01,91.4805 V 4.05859 h -47.67 V 253.098"
         style="fill:#040606;fill-opacity:1;fill-rule:nonzero;stroke:none"
         transform="matrix(0.13333333,0,0,-0.13333333,0,151.18667)" />
      <path
         id="path14"
         d="M 2522.58,4.05859 V 253.098 h 54.91 l 67.94,-106.879 c 17.3,-27.5 32.64,-56.4299 44.76,-83.469 l 0.93,0.2383 c -3.38,33.0625 -4.28,65.1527 -4.28,103.2067 v 86.903 h 44.41 V 4.05859 h -49.78 L 2612.83,113.621 c -16.77,27.332 -34.22,57.656 -47.15,85.906 l -1.24,-0.238 C 2566.37,166.93 2567,134.047 2567,93.1602 V 4.05859 h -44.42"
         style="fill:#040606;fill-opacity:1;fill-rule:nonzero;stroke:none"
         transform="matrix(0.13333333,0,0,-0.13333333,0,151.18667)" />
      <path
         id="path15"
         d="m 2914.84,108.84 -20.71,61.355 c -5.05,15.434 -9.41,32.371 -13.38,46.828 h -0.86 c -3.81,-14.605 -7.85,-31.859 -12.48,-46.664 L 2847.07,108.84 Z M 2839.22,74.4492 2816.79,4.05859 h -49.68 l 84.41,249.03941 h 61.19 L 2998.15,4.05859 h -51.56 l -23.8,70.39061 h -83.57"
         style="fill:#040606;fill-opacity:1;fill-rule:nonzero;stroke:none"
         transform="matrix(0.13333333,0,0,-0.13333333,0,151.18667)" />
      <path
         id="path16"
         d="m 3082.83,38.7695 c 6.74,-1.0976 16.94,-1.2187 26.79,-1.2187 62.37,-0.3203 99.48,32.4609 99.48,95.5082 0.25,54.933 -33.14,86.597 -93.51,86.597 -15.06,0 -25.8,-1.277 -32.76,-2.664 z m -48.01,210.9145 c 21.42,3.293 48.2,5.351 76.61,5.351 49.34,0 82.96,-9.699 107.17,-28.773 25.64,-19.692 41.24,-49.371 41.24,-91.641 0,-44.621 -16.11,-77.6405 -40.95,-99.0702 -26.41,-22.4492 -68,-33.89064 -119.12,-33.89064 -27.96,0 -49.16,1.37109 -64.95,3.26172 V 249.684"
         style="fill:#040606;fill-opacity:1;fill-rule:nonzero;stroke:none"
         transform="matrix(0.13333333,0,0,-0.13333333,0,151.18667)" />
      <path
         id="path17"
         d="M 559.012,5.19922 H 483.613 L 465.684,32.5586 H 393.52 l 26.011,45.9609 h 20.137 L 410.715,127.211 375.934,65.1992 C 336.801,2.62891 249.895,-19.8594 182.898,19.6914 116.32,59 99.1133,142.973 145.777,202.535 c 30.844,39.375 85.489,60.102 137.274,49.344 15.246,-3.164 29.539,-9.121 43.152,-16.059 l -34.719,-54.132 c -0.281,-0.153 -0.578,0.011 -0.836,0.113 -1.265,0.496 -3.011,1.726 -4.515,2.367 -19.086,8.078 -44.363,7.086 -62.711,-2.191 C 179.57,159.805 177.715,99.3203 219.82,74.5703 248.145,57.9297 290.742,62.6094 309.691,89.6484 L 410.715,257.156 559.012,5.19922"
         style="fill:#ed2423;fill-opacity:1;fill-rule:nonzero;stroke:none"
         transform="matrix(0.13333333,0,0,-0.13333333,0,151.18667)" />
      <path
         id="path18"
         d="M 66.7266,250.594 V 6.57031 H 0 V 250.594 h 66.7266"
         style="fill:#ed2423;fill-opacity:1;fill-rule:nonzero;stroke:none"
         transform="matrix(0.13333333,0,0,-0.13333333,0,151.18667)" />
    </g>
  </g>
</svg>
