<?xml version="1.0" encoding="UTF-8" standalone="no"?>
<!-- Created with Inkscape (http://www.inkscape.org/) -->

<svg
   version="1.1"
   id="svg1"
   width="472.44"
   height="132.28"
   viewBox="0 0 472.44 132.28"
   sodipodi:docname="Jetpak_logo.eps"
   xmlns:inkscape="http://www.inkscape.org/namespaces/inkscape"
   xmlns:sodipodi="http://sodipodi.sourceforge.net/DTD/sodipodi-0.dtd"
   xmlns="http://www.w3.org/2000/svg"
   xmlns:svg="http://www.w3.org/2000/svg">
  <defs
     id="defs1" />
  <sodipodi:namedview
     id="namedview1"
     pagecolor="#ffffff"
     bordercolor="#000000"
     borderopacity="0.25"
     inkscape:showpageshadow="2"
     inkscape:pageopacity="0.0"
     inkscape:pagecheckerboard="0"
     inkscape:deskcolor="#d1d1d1">
    <inkscape:page
       x="0"
       y="0"
       inkscape:label="1"
       id="page1"
       width="472.44"
       height="132.28"
       margin="0"
       bleed="0" />
  </sodipodi:namedview>
  <g
     id="g1"
     inkscape:groupmode="layer"
     inkscape:label="1">
    <g
       id="group-R5">
      <path
         id="path2"
         d="m 1756.68,714.734 c -40.98,-4.695 -79.41,-35.679 -97.48,-72.718 -16.94,-34.743 -38.16,-154.891 -41.88,-196.426 -6.92,-77.199 36.44,-120.699 112.1,-116.219 142.71,8.457 125.96,184.309 151.04,286.598 1.65,77.957 -53.78,106.789 -123.78,98.765 z m -77.82,111.727 -14.4,-90.176 c 69.27,78.813 179.61,125.395 282.63,91.66 117.73,-38.55 107.74,-145.812 91.61,-247.226 -19.64,-123.563 -28.65,-250.278 -141.66,-323.43 -73.74,-47.738 -194.37,-64.254 -266.54,-5.375 -16.45,13.418 -25.51,30.199 -38.13,46.09 L 1539.82,4.41797 H 1380.17 L 1522.31,826.461 h 156.55"
         style="fill:#ea2829;fill-opacity:1;fill-rule:nonzero;stroke:none"
         transform="matrix(0.13333333,0,0,-0.13333333,0,132.28)" />
      <path
         id="path3"
         d="m 2407.66,723.09 c -57.76,-5.973 -98.12,-50.77 -112.27,-105.902 -11.38,-44.34 -20.07,-104.942 -26.73,-151.032 -6.44,-44.476 -5.89,-86.39 35.76,-113.258 67.2,-43.339 158.17,-1.281 186.43,69.5 13.66,34.223 34.05,150.207 36.79,189.036 5.37,76.187 -47.52,119.148 -119.98,111.656 z m 58.1,-494.289 14.4,88.078 c -60.88,-69.777 -152.91,-113.184 -245.85,-100.359 -53.84,7.425 -103.48,35.796 -125.88,87.847 -23.85,55.446 -11.75,111.192 -2.51,168.078 21.26,130.86 32.38,275.895 164.82,339.7 77.14,37.164 201.67,38.835 264.05,-27.602 l 19.53,-29.371 15.47,71.289 h 154.49 l -101.96,-597.66 h -156.56"
         style="fill:#ea2829;fill-opacity:1;fill-rule:nonzero;stroke:none"
         transform="matrix(0.13333333,0,0,-0.13333333,0,132.28)" />
      <path
         id="path4"
         d="m 838.406,576.91 c 3.547,37.055 15.485,74.285 -6.129,108.051 -27.418,42.824 -88.535,46.387 -131.851,29.269 -55.293,-21.851 -80.43,-79.906 -82.434,-137.32 z m 135.68,-83.605 -373.742,-2.235 c -9.961,-52.3 -15.531,-102.918 34.758,-134.754 77.554,-49.097 193.886,-6.793 273.336,19.289 -1.098,-17.046 23.691,-90.414 17.531,-100.699 -2.832,-4.73 -56.828,-26.211 -65.895,-29.367 -115.078,-40.101 -308.836,-59.57 -396.633,45.07 -49.742,59.293 -40.8,121.024 -30.207,192.336 18.477,124.364 40.633,224.743 149.914,298.25 99.915,67.207 284.336,89.317 371.672,-9.23 68.59,-77.395 35.008,-187.524 19.266,-278.66"
         style="fill:#ea2829;fill-opacity:1;fill-rule:nonzero;stroke:none"
         transform="matrix(0.13333333,0,0,-0.13333333,0,132.28)" />
      <path
         id="path5"
         d="m 3543.11,992.125 c 0.89,-3.652 -1.48,-4.191 -3.07,-6.305 -12.64,-16.715 -30.31,-31.441 -43.28,-48.218 H 259.563 l 8.238,54.523 H 3543.11"
         style="fill:#eb2c2c;fill-opacity:1;fill-rule:nonzero;stroke:none"
         transform="matrix(0.13333333,0,0,-0.13333333,0,132.28)" />
      <path
         id="path6"
         d="m 401.699,826.461 c 1.473,-1.516 -3.949,-30.816 -4.769,-36.039 C 362.57,571.738 320.715,353.188 279.637,136.016 258.828,76.8828 216.313,34.8359 158.152,14.3359 106.512,-3.87109 53.7617,-0.679688 0,2.3125 L 18.5664,121.832 c 49.9649,-2.957 94.2386,1.246 109.7346,57.102 l 110.754,642.187 2.996,5.34 h 159.648"
         style="fill:#ea282a;fill-opacity:1;fill-rule:nonzero;stroke:none"
         transform="matrix(0.13333333,0,0,-0.13333333,0,132.28)" />
      <path
         id="path7"
         d="M 1433.73,826.461 1415.09,711.234 1289.3,709.91 1238.07,414.371 c -3.73,-73.098 65.79,-60.078 115.33,-57.641 -1.25,-14.468 -16.59,-120.382 -22.01,-123.351 -6.47,-3.551 -43.79,-9.149 -53.53,-10.52 -102.46,-14.433 -227.64,-3.836 -212.59,134.641 l 61.53,353.621 h -74.16 l 21.63,115.34 h 359.46"
         style="fill:#ea282a;fill-opacity:1;fill-rule:nonzero;stroke:none"
         transform="matrix(0.13333333,0,0,-0.13333333,0,132.28)" />
      <path
         id="path8"
         d="M 3394.8,826.461 3154.22,554.57 3297.98,228.801 h -178.19 l -144.93,325.637 245.87,272.023 h 174.07"
         style="fill:#ea2829;fill-opacity:1;fill-rule:nonzero;stroke:none"
         transform="matrix(0.13333333,0,0,-0.13333333,0,132.28)" />
      <path
         id="path9"
         d="m 2896.29,228.801 h -162.74 l 103,597.66 h 159.65 l -99.91,-597.66"
         style="fill:#ea282a;fill-opacity:1;fill-rule:nonzero;stroke:none"
         transform="matrix(0.13333333,0,0,-0.13333333,0,132.28)" />
    </g>
  </g>
</svg>
