<?xml version="1.0" encoding="UTF-8" standalone="no"?>
<!-- Created with Inkscape (http://www.inkscape.org/) -->

<svg
   version="1.1"
   id="svg1"
   width="415.74667"
   height="132.28"
   viewBox="0 0 415.74667 132.28"
   sodipodi:docname="Olearys_logo.eps"
   xmlns:inkscape="http://www.inkscape.org/namespaces/inkscape"
   xmlns:sodipodi="http://sodipodi.sourceforge.net/DTD/sodipodi-0.dtd"
   xmlns="http://www.w3.org/2000/svg"
   xmlns:svg="http://www.w3.org/2000/svg">
  <defs
     id="defs1" />
  <sodipodi:namedview
     id="namedview1"
     pagecolor="#ffffff"
     bordercolor="#000000"
     borderopacity="0.25"
     inkscape:showpageshadow="2"
     inkscape:pageopacity="0.0"
     inkscape:pagecheckerboard="0"
     inkscape:deskcolor="#d1d1d1">
    <inkscape:page
       x="0"
       y="0"
       inkscape:label="1"
       id="page1"
       width="415.74667"
       height="132.28"
       margin="0"
       bleed="0" />
  </sodipodi:namedview>
  <g
     id="g1"
     inkscape:groupmode="layer"
     inkscape:label="1">
    <g
       id="group-R5">
      <path
         id="path2"
         d="m 2941.63,340.688 c -64.77,-20.879 -101.76,33.824 -118.48,80.05 l 134.72,98.387 10.31,1.531 c 24.33,-48.676 46.4,-156.461 -26.55,-179.968 z M 2407.75,107.637 c -12.03,-13.4065 -39.95,-39.3362 -59.87,-26.2034 -39.06,25.6834 35.26,94.8984 58.39,113.2344 6.62,5.266 68.09,48.43 72.43,44.324 7.86,-7.437 -58.36,-117.304 -70.95,-131.355 z m 686.35,385.527 c -17.34,28.899 -47.33,51.797 -56.77,84.277 4.82,20.235 64.81,43.071 70.6,53.418 10.3,18.457 -17.03,53.723 -38.92,60.395 -45.33,13.809 -85.49,-18.488 -105.52,-51.609 -18.69,-30.981 -22.58,-40.411 -52.06,-67.043 -39.23,-35.418 -83.63,-69.856 -125.86,-102.516 -39.36,-30.398 -80.11,-60 -122.48,-87.125 45.13,76.41 108.66,144.152 149.17,222.582 10.1,44.539 -51.16,54.305 -88.53,55.652 -4.41,-15.183 -12.24,-30.765 -20.37,-44.632 -28.24,-48.215 -61.6,-100.254 -93.08,-146.938 -24.1,-35.785 -74.91,-126.855 -135.96,-101.324 -34.51,14.418 -8.03,54.336 3.79,74.812 19.03,32.973 98.28,132.551 96.87,161.481 -1.48,30.336 -58.84,44.785 -87.11,41.051 -13.65,-18.309 -22.96,-40.778 -34.96,-60.766 -34.74,-57.918 -121.44,-203.356 -187.08,-228.766 -24.16,-9.336 -60.15,-9.488 -55.33,21.371 8.07,51.52 78.36,118.192 97.49,167.719 26.34,68.082 -39.99,65.574 -91.28,77.973 -20.93,5.051 -41.09,12.09 -62.02,16.894 23.86,98.051 -110.21,85.868 -136.96,12.891 -13.44,-36.766 13.48,-42.918 12.83,-56.941 -0.66,-14.141 -31.34,-65.293 -40.78,-80.477 -28.2,-45.43 -104.22,-148.531 -160.72,-163.406 -12.72,-3.336 -30.3,-6.278 -37.23,6.98 -27.64,52.774 181.74,202.559 -16.4,184.528 -35.68,-46.868 -66.98,-108.184 -113.7,-147 -70.84,-58.926 -113.86,-27.09 -78.49,51.335 42.02,93.184 170.71,188.172 283.09,119.051 109.24,84.063 -11.14,110.418 -99.59,103.715 -156.58,-11.848 -228.62,-149.664 -329.04,-231.273 -51.78,-42.063 -142.27,-104.387 -215.66,-99.551 -26.86,1.773 -49.23,17.539 -52.99,41.723 -10.65,68.359 61.88,163.988 118.73,206.265 15.37,11.418 62.91,43.375 82.14,30.949 18.52,-48.367 -38.64,-95.082 -81.66,-117.093 -13.27,-6.793 -80.87,-29.661 -83.46,-33.028 -12.03,-15.828 12.27,-39.55 32.03,-42.277 45.05,-6.242 138.64,45.094 171.39,72.855 89.63,75.887 80.08,188.938 -65.53,180.645 -111.38,-6.34 -230.62,-93.277 -282.6,-177.613 -44.75,-72.641 -68.914,-184.375 35.02,-226.16 113.48,-45.614 258.51,19.347 347.66,82.253 -1.94,-143.05 185.22,-94.468 246.47,-15.336 6.62,-100.375 121.62,-92.14 196.26,-50.265 103.59,58.133 180.94,181.898 227.86,279.855 l 82.7,-22.988 c -29.03,-59.082 -118.93,-149.266 -113.93,-214.379 2.82,-36.918 40.54,-68.109 81.18,-71.781 69.67,-6.309 135.75,27.793 182.74,70.344 l 13.65,-18.426 c 24.61,-26.418 62.36,-30.676 98.32,-24.43 l -75.53,-38.512 C 2335.95,226.352 2268.07,179.762 2248.18,133.016 2218.95,64.2305 2265.56,-0.757813 2349.5,0.0078125 2497.83,1.35547 2557.12,190.813 2607.32,287.086 l 138.58,83.539 c 3.58,-5.785 -2.11,-12.703 -1.93,-19.742 1.24,-49.074 101.24,-82.867 147.09,-87 150.75,-13.594 282.78,96.305 203.04,229.281"
         style="fill:#40a287;fill-opacity:1;fill-rule:nonzero;stroke:none"
         transform="matrix(0.13333333,0,0,-0.13333333,0,132.28)" />
      <path
         id="path3"
         d="m 623.258,856.57 c -93.465,-3.058 -135.985,-113.269 -78.379,-178.199 5.894,-6.641 33.512,-26.043 34.191,-28.019 5.535,-16.164 -50.933,-35.493 -64.457,-37.067 C 403.43,600.348 395.203,725.93 419.008,793.031 333.195,726.555 243.406,641.363 193.668,549.293 157.758,482.824 115.75,346.477 249.617,355.742 c 167.418,11.586 417.852,283.25 435.567,424.426 4.984,39.742 -9.223,78.133 -61.926,76.402 z m 6.953,85.676 C 781.535,957.473 826.012,860.836 798.203,744.086 753.789,557.625 542.988,330.262 338.805,267.348 75.8008,186.309 -75.7227,328.723 38.5352,555.418 98.9336,675.246 293.27,872.875 433.586,917.871 c 43.957,14.094 48.602,3.543 81.273,-20.305 33.258,21.692 73.727,40.489 115.352,44.68"
         style="fill:#40a287;fill-opacity:1;fill-rule:nonzero;stroke:none"
         transform="matrix(0.13333333,0,0,-0.13333333,0,132.28)" />
      <path
         id="path4"
         d="m 1195.57,905.504 c 42.93,4.551 78.64,-5.758 105.94,-35.844 6.01,-6.625 23.9,-29.363 17.51,-36.941 -12.67,-4.696 -26.22,-6.629 -38.86,-11.524 C 1089.53,747.34 999.688,525.996 883.973,383.227 c -10.567,-13.039 -42.743,-42.016 -47.934,-52.5 -1.156,-2.34 -2.633,-4.227 -1.316,-6.911 113.609,-110.839 275.037,-185.597 446.117,-133.828 24.87,7.528 46.49,20.785 71.67,27.242 78.18,-69.878 -34.76,-131.2222 -105.22,-147.4409 -108.58,-24.9961 -212.65,-3.543 -305.767,48.5699 -71.703,40.125 -126.621,98.145 -192.32,144.754 -24.441,-7.656 -47.758,-21.668 -73.551,-28.562 -48.121,-12.863 -139.781,-16.246 -141.3,45.926 -1.829,74.996 113.601,94.613 177.601,93.203 14.641,-0.325 20.317,-8.11 36.434,1.39 18.293,10.785 63.215,77.567 76.23,97.602 78.852,121.391 190.393,413.695 370.953,432.832"
         style="fill:#40a287;fill-opacity:1;fill-rule:nonzero;stroke:none"
         transform="matrix(0.13333333,0,0,-0.13333333,0,132.28)" />
      <path
         id="path5"
         d="m 930.125,991.211 c 148.585,15.289 49.805,-165.773 -11.387,-207.223 -18.527,-12.55 -39.097,-18.386 -53.359,1.321 18.754,39.332 28.074,82.699 24.09,125.593 -1.125,12.11 -14.629,52.067 -13.18,57.598 3.328,12.703 41.012,21.391 53.836,22.711"
         style="fill:#41a288;fill-opacity:1;fill-rule:nonzero;stroke:none"
         transform="matrix(0.13333333,0,0,-0.13333333,0,132.28)" />
    </g>
  </g>
</svg>
